<?xml version="1.0" encoding="UTF-8"?>
<svg width="200" height="200" viewBox="0 0 200 200" xmlns="http://www.w3.org/2000/svg">
  <title>Feng manifest icon</title>
  <desc>Document icon for Feng manifests with an F mark and manifest entry lines.</desc>

    <g transform="translate(8 7)">
      <g transform="translate(95 96.5) scale(1.3575 1.195) translate(-95 -96.5)">
      <path d="M52 18H118L154 54V150C154 161.046 145.046 170 134 170H52C40.954 170 32 161.046 32 150V38C32 26.954 40.954 18 52 18Z"
        fill="#F8EED6"/>
      <path d="M52 18H118L154 54V150C154 161.046 145.046 170 134 170H52C40.954 170 32 161.046 32 150V38C32 26.954 40.954 18 52 18Z"
        fill="#E4C57D" opacity="0.22"/>

          <path d="M118 18V54H154L118 18Z"
        fill="#EFDCA8"/>
          <path d="M118 18V54H154L118 18Z"
        fill="#C99D52" opacity="0.54"/>

      <path d="M52 18H118L154 54V150C154 161.046 145.046 170 134 170H52C40.954 170 32 161.046 32 150V38C32 26.954 40.954 18 52 18Z"
        fill="none" stroke="#A78549" stroke-width="2" stroke-linejoin="round"/>
      <path d="M118 18V54H154"
        fill="none" stroke="#A78549" stroke-width="2" stroke-linecap="round" stroke-linejoin="round"/>

      <g transform="translate(-12 0)">
        <path d="M64 59H108V77H82V92H102V110H82V141H64V59Z"
          fill="#A78549"/>
        <rect x="108" y="74" width="20" height="8" rx="3" fill="#A78549" opacity="0.9"/>
        <rect x="108" y="94" width="28" height="8" rx="3" fill="#A78549" opacity="0.9"/>
        <rect x="108" y="114" width="22" height="8" rx="3" fill="#A78549" opacity="0.9"/>
      </g>
      </g>
    </g>
</svg>