<?xml version="1.0" encoding="UTF-8"?>
<svg width="200" height="200" viewBox="0 0 200 200" xmlns="http://www.w3.org/2000/svg">
  <title>Feng bundle icon</title>
  <desc>Document icon for Feng bundles with an F mark and a gear symbol.</desc>

    <g transform="translate(8 7)">
      <g transform="translate(95 96.5) scale(1.3575 1.195) translate(-95 -96.5)">
      <path d="M52 18H118L154 54V150C154 161.046 145.046 170 134 170H52C40.954 170 32 161.046 32 150V38C32 26.954 40.954 18 52 18Z"
        fill="#F8EED6"/>
      <path d="M52 18H118L154 54V150C154 161.046 145.046 170 134 170H52C40.954 170 32 161.046 32 150V38C32 26.954 40.954 18 52 18Z"
        fill="#E4C57D" opacity="0.22"/>

          <path d="M118 18V54H154L118 18Z"
        fill="#EFDCA8"/>
          <path d="M118 18V54H154L118 18Z"
        fill="#C99D52" opacity="0.54"/>

      <path d="M52 18H118L154 54V150C154 161.046 145.046 170 134 170H52C40.954 170 32 161.046 32 150V38C32 26.954 40.954 18 52 18Z"
        fill="none" stroke="#A78549" stroke-width="2" stroke-linejoin="round"/>
      <path d="M118 18V54H154"
        fill="none" stroke="#A78549" stroke-width="2" stroke-linecap="round" stroke-linejoin="round"/>

      <g transform="translate(-12 0)">
        <path d="M64 59H104V77H82V92H100V110H82V141H64V59Z"
          fill="#A78549"/>
        <g transform="translate(122 119) scale(0.88 1) translate(-122 -119)">
          <g fill="#A78549">
            <rect x="118" y="95" width="8" height="13"/>
            <rect x="118" y="130" width="8" height="13"/>
            <rect x="97" y="115" width="13" height="8"/>
            <rect x="134" y="115" width="13" height="8"/>
            <rect x="103" y="100" width="11" height="8" transform="rotate(-45 108.5 104)"/>
            <rect x="130" y="100" width="11" height="8" transform="rotate(45 135.5 104)"/>
            <rect x="130" y="130" width="11" height="8" transform="rotate(-45 135.5 134)"/>
            <rect x="103" y="130" width="11" height="8" transform="rotate(45 108.5 134)"/>
            <circle cx="122" cy="119" r="17"/>
          </g>
          <circle cx="122" cy="119" r="6.5" fill="#F8EED6"/>
        </g>
      </g>
      </g>
    </g>
</svg>