<?xml version="1.0" encoding="UTF-8"?>
<svg width="200" height="200" viewBox="0 0 200 200" xmlns="http://www.w3.org/2000/svg">
  <title>Feng file icon</title>
  <desc>Document-shaped file icon for Feng, optimized for VS Code tree display.</desc>

    <g transform="translate(8 7)">
      <g transform="translate(95 96.5) scale(1.3575 1.195) translate(-95 -96.5)">
      <path d="M52 18H118L154 54V150C154 161.046 145.046 170 134 170H52C40.954 170 32 161.046 32 150V38C32 26.954 40.954 18 52 18Z"
        fill="#F8EED6"/>
      <path d="M52 18H118L154 54V150C154 161.046 145.046 170 134 170H52C40.954 170 32 161.046 32 150V38C32 26.954 40.954 18 52 18Z"
        fill="#E4C57D" opacity="0.22"/>

          <path d="M118 18V54H154L118 18Z"
        fill="#EFDCA8"/>
          <path d="M118 18V54H154L118 18Z"
        fill="#C99D52" opacity="0.54"/>

      <path d="M52 18H118L154 54V150C154 161.046 145.046 170 134 170H52C40.954 170 32 161.046 32 150V38C32 26.954 40.954 18 52 18Z"
        fill="none" stroke="#A78549" stroke-width="2" stroke-linejoin="round"/>
      <path d="M118 18V54H154"
        fill="none" stroke="#A78549" stroke-width="2" stroke-linecap="round" stroke-linejoin="round"/>

      <g transform="translate(-12 0)">
        <path d="M68 61H122V81H90V98H116V118H90V143H68V61Z"
          fill="#A78549"/>
      </g>
      </g>
    </g>
</svg>